HIERARCHY
ROOT bip01_pelvis
{
	OFFSET -0.141780 111.560104 -53.453648
	CHANNELS 6 Xposition Yposition Zposition Xrotation Yrotation Zrotation
	JOINT bip01_l_thigh
	{
		OFFSET -12.581326 0.000023 0.838757
		CHANNELS 3 Xrotation Yrotation Zrotation
		JOINT bip01_l_calf
		{
			OFFSET -5.405050 -43.060066 12.568863
			CHANNELS 3 Xrotation Yrotation Zrotation
			JOINT bip01_l_foot
			{
				OFFSET -6.378141 -25.639313 -28.000755
				CHANNELS 3 Xrotation Yrotation Zrotation
				JOINT bip01_l_toe0
				{
					OFFSET -1.312191 -43.345943 -5.410645
					CHANNELS 3 Xrotation Yrotation Zrotation
					End Site
					{
						OFFSET 0.668312 -0.011212 0.027710
					}
				}
			}
		}
	}
	JOINT bip01_r_thigh
	{
		OFFSET 12.581315 -0.000053 -0.838764
		CHANNELS 3 Xrotation Yrotation Zrotation
		JOINT bip01_r_calf
		{
			OFFSET 7.025425 -43.060097 11.740181
			CHANNELS 3 Xrotation Yrotation Zrotation
			JOINT bip01_r_foot
			{
				OFFSET 2.604660 -25.639347 -28.599602
				CHANNELS 3 Xrotation Yrotation Zrotation
				JOINT bip01_r_toe0
				{
					OFFSET 0.582125 -43.345810 -5.536972
					CHANNELS 3 Xrotation Yrotation Zrotation
					End Site
					{
						OFFSET 0.658720 0.011207 -0.116180
					}
				}
			}
		}
	}
	JOINT bip01_spine
	{
		OFFSET 1.130847 -10.257637 16.963192
		CHANNELS 3 Xrotation Yrotation Zrotation
		JOINT bip01_spine1
		{
			OFFSET 2.125925 -0.408882 31.891911
			CHANNELS 3 Xrotation Yrotation Zrotation
			JOINT bip01_spine2
			{
				OFFSET 3.104555 -1.436646 46.949230
				CHANNELS 3 Xrotation Yrotation Zrotation
				JOINT bip01_neck
				{
					OFFSET 1.831697 12.621635 29.209831
					CHANNELS 3 Xrotation Yrotation Zrotation
					JOINT bip01_head
					{
						OFFSET 0.933028 14.642593 15.308128
						CHANNELS 3 Xrotation Yrotation Zrotation
						JOINT bip01_ponytail1
						{
							OFFSET 12.881245 30.917107 3.869919
							CHANNELS 3 Xrotation Yrotation Zrotation
							End Site
							{
								OFFSET -0.556711 0.315430 0.195229
							}
						}
						JOINT bip01_ponytail2
						{
							OFFSET -12.308470 31.163292 5.588448
							CHANNELS 3 Xrotation Yrotation Zrotation
							End Site
							{
								OFFSET -0.577699 -0.315430 -0.119598
							}
						}
						JOINT bone01
						{
							OFFSET -0.035753 10.693596 0.910164
							CHANNELS 3 Xrotation Yrotation Zrotation
							End Site
							{
								OFFSET -0.667642 0.000000 0.042305
							}
						}
						JOINT bone03
						{
							OFFSET -2.859410 10.011330 9.974838
							CHANNELS 3 Xrotation Yrotation Zrotation
							End Site
							{
								OFFSET 0.042301 0.000000 0.667641
							}
						}
						JOINT bone05
						{
							OFFSET 4.144515 10.011345 9.531006
							CHANNELS 3 Xrotation Yrotation Zrotation
							End Site
							{
								OFFSET 0.042301 0.000000 0.667641
							}
						}
					}
					JOINT bip01_l_clavicle
					{
						OFFSET -6.817371 -1.737137 -4.124603
						CHANNELS 3 Xrotation Yrotation Zrotation
						JOINT bip01_l_upperarm
						{
							OFFSET -13.915021 0.119522 7.203735
							CHANNELS 3 Xrotation Yrotation Zrotation
							JOINT bip01_l_forearm
							{
								OFFSET 0.900768 -49.360191 -24.691143
								CHANNELS 3 Xrotation Yrotation Zrotation
								JOINT bip01_l_hand
								{
									OFFSET 5.453267 -54.192162 0.261513
									CHANNELS 3 Xrotation Yrotation Zrotation
									End Site
									{
										OFFSET -0.048247 0.019447 -0.666954
									}
								}
							}
						}
					}
					JOINT bip01_r_clavicle
					{
						OFFSET 6.291911 -1.668388 -4.989365
						CHANNELS 3 Xrotation Yrotation Zrotation
						JOINT bip01_r_upperarm
						{
							OFFSET 14.738678 0.269737 5.313599
							CHANNELS 3 Xrotation Yrotation Zrotation
							JOINT bip01_r_forearm
							{
								OFFSET -4.170362 -49.360199 -24.353104
								CHANNELS 3 Xrotation Yrotation Zrotation
								JOINT bip01_r_hand
								{
									OFFSET -5.370342 -54.192158 0.983074
									CHANNELS 3 Xrotation Yrotation Zrotation
									End Site
									{
										OFFSET 0.040714 -0.019448 0.667458
									}
								}
							}
						}
					}
				}
			}
		}
	}
	JOINT bip01_tail
	{
		OFFSET -1.140240 5.694984 -17.420544
		CHANNELS 3 Xrotation Yrotation Zrotation
		JOINT bip01_tail1
		{
			OFFSET -0.799711 -16.655739 -11.995483
			CHANNELS 3 Xrotation Yrotation Zrotation
			JOINT bip01_tail2
			{
				OFFSET -0.560408 -49.655807 -8.404999
				CHANNELS 3 Xrotation Yrotation Zrotation
				End Site
				{
					OFFSET -0.667499 0.000004 0.044495
				}
			}
		}
	}
}
MOTION
Frames: 8
Frame Time: 0.041667
-0.465998 117.643494 -55.096985 2.632746 0.013860 -0.015884 13.873841 -14.553842 8.372644 -23.020830 2.978935 2.678044 -13.601599 2.947250 -1.398382 20.799606 0.512707 -2.406117 8.986383 14.748967 -4.638436 -14.637070 -2.270637 0.361094 -0.572144 -12.338918 1.381874 11.296721 2.438454 -5.059352 6.104131 -1.196048 0.013089 -12.469681 -2.520874 -2.139407 3.262191 1.828200 1.005242 -9.414731 -1.481090 4.584343 8.285008 -0.369814 -3.585945 -21.554428 5.152373 -14.086866 -4.964443 1.759104 16.347653 3.979008 -0.127162 -0.420923 0.004076 0.003788 -0.004769 -0.002727 0.000245 0.003161 12.826555 -43.180688 4.112520 1.808823 52.252112 -9.402098 -0.080272 -0.007722 0.013236 0.849027 -10.715158 -0.906157 19.812393 29.795611 -20.321800 3.679863 -30.707526 17.093460 -10.895957 1.097658 -0.207361 6.343735 -0.799330 1.412944 1.803136 -3.062233 1.724278 0.641242 0.412884 -1.088845 -16.973430 -1.303701 -1.647162 
-0.465998 117.623566 -55.277302 2.482083 -0.315296 -0.013847 13.688512 -14.200283 8.256605 -22.666420 2.941972 2.628408 -13.644878 2.970023 -1.416610 20.787910 0.510111 -2.405312 9.022637 15.068780 -4.668675 -14.454793 -2.241947 0.360183 -0.623963 -12.355464 1.398859 11.296721 2.438454 -5.059351 6.286993 -1.002580 -0.038117 -12.574241 -2.359533 -1.907769 3.477698 1.718553 0.902271 -9.157848 -1.351749 4.364514 8.038219 -0.404436 -3.426953 -21.554424 5.152374 -14.086863 -4.964441 1.759103 16.347650 3.968771 -0.126053 -0.416898 0.004079 0.003790 -0.004770 -0.002726 0.000245 0.003158 12.789831 -43.235606 4.446046 1.631461 52.430072 -9.320935 -0.182804 -0.017999 0.029937 0.958516 -10.791013 -0.974558 19.405638 29.771234 -20.035837 3.478694 -31.043749 16.906789 -10.786091 1.086428 -0.206316 6.364163 -0.449837 1.434726 1.869114 -2.750729 1.738643 0.582355 0.409196 -1.056114 -17.489370 -1.303422 -1.595967 
-0.465997 117.603630 -55.427570 2.318875 -0.662296 -0.017876 13.493433 -13.860239 8.148380 -22.289895 2.902358 2.575922 -13.688292 2.995243 -1.439151 20.781351 0.507589 -2.401101 9.061451 15.413375 -4.705006 -14.265747 -2.212194 0.359143 -0.674668 -12.370724 1.419083 11.296721 2.438452 -5.059351 6.480095 -0.795532 -0.094671 -12.685072 -2.186048 -1.663259 3.703306 1.600569 0.793077 -8.887095 -1.216326 4.132517 7.774619 -0.440230 -3.259254 -21.554421 5.152378 -14.086865 -4.964439 1.759104 16.347653 3.937004 -0.125863 -0.414868 0.004078 0.003789 -0.004770 -0.002726 0.000245 0.003160 12.756435 -43.294926 4.802837 1.437871 52.618131 -9.227299 -0.292816 -0.029060 0.047837 1.070494 -10.877557 -1.045661 18.975702 29.739545 -19.731433 3.263675 -31.398123 16.703706 -10.664363 1.073987 -0.205133 6.380828 -0.078635 1.455587 1.938744 -2.416035 1.751913 0.520257 0.406085 -1.015399 -18.036592 -1.303572 -1.543166 
-0.465997 117.563759 -55.607899 2.150357 -1.030841 -0.023171 13.293735 -13.504328 8.037135 -21.893297 2.860257 2.520918 -13.752561 3.019773 -1.454691 20.786987 0.496465 -2.402436 9.104337 15.764620 -4.737909 -14.067974 -2.181075 0.357949 -0.730523 -12.387671 1.435837 11.296721 2.438455 -5.059352 6.687104 -0.581964 -0.156609 -12.802959 -2.007599 -1.406816 3.942668 1.474295 0.677411 -8.602341 -1.079544 3.886653 7.497650 -0.482102 -3.082117 -21.554422 5.152374 -14.086863 -4.964441 1.759103 16.347655 3.884393 -0.125555 -0.411511 0.004077 0.003789 -0.004770 -0.002727 0.000245 0.003161 12.718400 -43.357686 5.178886 1.232632 52.813649 -9.124331 -0.402206 -0.040090 0.065617 1.189338 -10.965101 -1.119194 18.523283 29.709014 -19.414920 3.027980 -31.771574 16.485881 -10.535635 1.060836 -0.203853 6.398755 0.315384 1.479885 2.010514 -2.065662 1.764310 0.457707 0.397778 -0.980517 -18.611586 -1.305983 -1.485868 
-0.465997 117.533852 -55.758171 1.972244 -1.417881 -0.015153 13.088896 -13.113093 7.920156 -21.489597 2.817006 2.465223 -13.810092 3.043799 -1.471178 20.791355 0.485000 -2.403786 9.149631 16.130719 -4.772156 -13.866763 -2.149413 0.356625 -0.789471 -12.405013 1.452373 11.296721 2.438455 -5.059352 6.901261 -0.354824 -0.224030 -12.927564 -1.821194 -1.134433 4.192105 1.343649 0.558530 -8.307846 -0.932571 3.630377 7.206889 -0.523493 -2.899473 -21.554424 5.152372 -14.086863 -4.964439 1.759105 16.347655 3.815775 -0.125130 -0.407176 0.004078 0.003789 -0.004770 -0.002727 0.000245 0.003160 12.676393 -43.421691 5.562475 1.011905 53.020822 -9.015984 -0.512322 -0.051224 0.083493 1.312366 -11.058597 -1.197818 18.052584 29.671708 -19.081899 2.783199 -32.163265 16.257418 -10.395962 1.046569 -0.202433 6.415124 0.726151 1.501092 2.088598 -1.699431 1.775431 0.388782 0.394650 -0.939316 -19.207404 -1.307084 -1.430544 
-0.465997 117.513931 -55.938492 1.790327 -1.816645 -0.012745 12.870429 -12.727865 7.803734 -21.067375 2.771345 2.407295 -13.843263 3.067283 -1.498244 20.775526 0.468786 -2.400055 9.202726 16.513859 -4.811820 -13.661937 -2.117192 0.355162 -0.843431 -12.423943 1.473706 11.296721 2.438455 -5.059352 7.122788 -0.124545 -0.292963 -13.059591 -1.625458 -0.856372 4.451525 1.207962 0.433160 -7.999002 -0.784699 3.367915 6.905685 -0.570345 -2.715473 -21.554421 5.152372 -14.086863 -4.964437 1.759103 16.347657 3.731572 -0.124649 -0.401799 0.004080 0.003788 -0.004772 -0.002725 0.000244 0.003161 12.636276 -43.487999 5.963652 0.775502 53.234679 -8.896777 -0.621761 -0.062329 0.101237 1.437263 -11.153374 -1.278768 17.568713 29.628145 -18.742287 2.520096 -32.567588 16.020962 -10.249336 1.031595 -0.200901 6.427479 1.154120 1.521413 2.163538 -1.323882 1.789167 0.319121 0.391469 -0.898057 -19.823734 -1.310753 -1.371338 
-0.465998 117.474052 -56.118809 1.605445 -2.223716 -0.003739 12.649259 -12.311770 7.682980 -20.640171 2.724707 2.349018 -13.893344 3.093113 -1.519781 20.774114 0.447696 -2.399245 9.256814 16.931132 -4.860268 -13.452580 -2.084262 0.353549 -0.902324 -12.441301 1.490189 11.296721 2.438454 -5.059351 7.351146 0.112010 -0.370610 -13.191990 -1.428394 -0.567086 4.713610 1.068299 0.308769 -7.682345 -0.634756 3.094919 6.597880 -0.619042 -2.523534 -21.554424 5.152374 -14.086860 -4.964435 1.759104 16.347655 3.631745 -0.124092 -0.395425 0.004078 0.003789 -0.004772 -0.002728 0.000245 0.003160 12.593181 -43.558821 6.377244 0.531478 53.451674 -8.770929 -0.734965 -0.073849 0.119571 1.562435 -11.254221 -1.359588 17.071826 29.586443 -18.394400 2.243094 -32.979360 15.766848 -10.098841 1.016230 -0.199291 6.445195 1.589402 1.541197 2.246656 -0.934161 1.798368 0.250305 0.383652 -0.854924 -20.457434 -1.312028 -1.309304 
-0.465998 117.434181 -56.299133 1.417189 -2.643007 0.007626 12.425322 -11.897510 7.567441 -20.208771 2.677164 2.290521 -13.918740 3.119298 -1.548599 20.751696 0.428297 -2.394747 9.311909 17.310126 -4.896543 -13.248149 -2.052111 0.351857 -0.957813 -12.457061 1.510181 11.296721 2.438455 -5.059352 7.580178 0.351700 -0.449383 -13.329107 -1.228595 -0.276707 4.982462 0.927509 0.181018 -7.356446 -0.481322 2.814352 6.283403 -0.675421 -2.327578 -21.554424 5.152375 -14.086865 -4.964439 1.759103 16.347657 3.515999 -0.123452 -0.388029 0.004079 0.003789 -0.004770 -0.002727 0.000245 0.003161 12.557087 -43.628219 6.800652 0.275866 53.671924 -8.639671 -0.840743 -0.084650 0.136681 1.689532 -11.356314 -1.442632 16.563926 29.536391 -18.035208 1.959003 -33.401828 15.512012 -9.940536 1.000072 -0.197554 6.458344 2.031752 1.560607 2.326860 -0.539802 1.808679 0.177056 0.379065 -0.810220 -21.104646 -1.319003 -1.245700 
